<?xml version="1.0" standalone="no"?>
<!DOCTYPE svg PUBLIC "-//W3C//DTD SVG 20010904//EN"
 "http://www.w3.org/TR/2001/REC-SVG-20010904/DTD/svg10.dtd">
<svg version="1.0" xmlns="http://www.w3.org/2000/svg"
 width="599.000000pt" height="600.000000pt" viewBox="0 0 599.000000 600.000000"
 preserveAspectRatio="xMidYMid meet">

<g transform="translate(0.000000,600.000000) scale(0.100000,-0.100000)"
fill="#000000" stroke="none">
<path d="M1874 5770 c-33 -13 -52 -46 -85 -150 -28 -86 -32 -114 -40 -295 -5
-110 -12 -245 -15 -300 -4 -64 -2 -121 6 -160 19 -88 20 -231 2 -288 -32 -106
1 -230 80 -303 38 -35 39 -37 23 -60 -17 -27 -12 -68 13 -96 8 -10 11 -18 7
-18 -5 0 6 -16 25 -35 29 -30 31 -35 14 -35 -18 -1 -18 -1 -1 -11 12 -7 16
-17 12 -29 -3 -11 -8 -43 -10 -72 -3 -34 -11 -57 -21 -65 -16 -12 -16 -13 0
-19 15 -6 15 -7 0 -18 -14 -11 -13 -13 10 -24 15 -6 26 -20 26 -30 0 -11 8
-27 19 -36 10 -9 32 -45 47 -79 26 -56 29 -73 29 -167 0 -95 -3 -110 -28 -163
-34 -68 -80 -107 -138 -114 l-42 -6 24 -18 c13 -10 42 -21 64 -25 l40 -7 -44
-38 -44 -39 33 6 32 7 -47 -47 c-49 -50 -55 -73 -9 -37 42 33 39 18 -6 -26
-45 -46 -55 -76 -14 -44 49 39 46 21 -5 -35 -28 -30 -51 -59 -51 -64 0 -4 17
1 37 11 20 10 39 16 42 12 3 -3 1 -8 -5 -10 -6 -2 -32 -17 -58 -33 -49 -31
-64 -58 -22 -39 26 12 76 5 76 -11 0 -6 -13 -10 -29 -10 -47 0 -45 -17 2 -25
l42 -8 -37 -15 c-21 -8 -38 -17 -38 -21 0 -3 52 -6 115 -6 63 0 115 1 115 2 0
8 -76 33 -98 33 -44 0 -8 23 46 30 l47 6 -30 16 -30 17 35 2 c19 0 49 0 65 -1
l30 -2 -40 35 -39 34 34 -3 35 -4 -34 13 -33 13 23 16 24 17 -25 1 c-14 0 -35
3 -47 6 -22 6 -22 7 9 28 42 28 50 50 13 36 -41 -16 -50 -12 -28 13 31 34 40
55 15 33 l-22 -19 22 64 c14 43 18 64 10 67 -8 2 -5 19 8 53 21 52 25 81 13
77 -14 -5 -13 16 2 70 9 29 19 79 24 110 7 55 8 56 19 29 7 -16 12 -47 12 -69
0 -61 9 -42 31 68 11 55 29 118 40 141 21 44 90 113 112 113 24 0 46 -34 71
-106 13 -38 39 -104 59 -146 19 -42 33 -79 30 -81 -2 -3 0 -21 5 -40 8 -29 7
-37 -5 -41 -8 -3 -19 -4 -24 0 -18 11 -8 -13 14 -34 26 -24 48 -27 79 -11 19
10 20 9 14 -23 l-7 -33 25 30 c31 36 82 138 91 180 6 29 6 29 -9 11 -15 -18
-16 -19 -16 -2 0 11 -5 16 -14 13 -9 -4 -16 4 -20 24 -5 26 -9 29 -27 24 -15
-5 -19 -4 -15 4 4 6 -8 20 -28 32 -31 18 -78 78 -82 104 0 6 -8 27 -18 47 -9
21 -16 42 -16 48 0 5 -4 10 -10 10 -22 0 -8 19 20 29 19 6 28 7 25 0 -11 -17
34 -94 67 -114 20 -12 59 -22 98 -25 60 -5 65 -7 68 -30 6 -46 11 -54 27 -40
13 11 14 10 8 -6 -6 -17 -5 -17 10 -5 18 14 18 7 2 -71 -5 -26 3 -23 55 26 28
27 65 49 91 57 56 16 54 13 33 44 -16 24 -16 34 -5 88 6 34 24 102 38 150 24
80 25 93 15 135 -31 117 -107 202 -181 202 -54 0 -80 -22 -76 -64 2 -27 0 -33
-12 -29 -8 3 -12 11 -9 19 5 13 -32 3 -99 -27 l-30 -14 50 -5 c48 -5 50 -6 51
-37 1 -29 -1 -31 -17 -23 -12 7 -34 7 -65 0 -83 -19 -99 -32 -218 -175 -21
-25 -40 -44 -42 -42 -2 2 1 18 7 36 19 53 3 46 -43 -19 l-43 -62 -3 32 -3 31
-22 -27 -21 -27 -13 29 c-6 16 -12 51 -13 79 l0 50 -31 -38 c-17 -21 -34 -36
-36 -33 -11 11 103 221 192 356 52 79 94 145 92 146 -1 2 -24 -11 -50 -28 -29
-18 -44 -34 -37 -38 7 -4 -6 -26 -35 -58 -26 -29 -42 -52 -36 -52 6 0 -14 -30
-44 -67 -30 -38 -55 -75 -55 -83 0 -9 -7 -26 -16 -38 -8 -12 -12 -22 -8 -22
12 0 -20 -32 -60 -62 -21 -15 -43 -28 -47 -28 -4 0 0 19 11 42 11 25 15 45 9
48 -5 4 4 19 21 35 36 34 38 45 8 38 -17 -3 -6 11 37 51 40 37 54 55 43 56
-17 0 -26 20 -10 20 4 1 27 19 51 40 l43 40 -28 11 -29 11 32 12 c17 6 34 14
37 17 4 3 -10 23 -29 44 -20 20 -34 40 -31 42 3 3 24 -2 47 -11 23 -9 44 -15
47 -12 2 3 -6 20 -20 38 -43 58 -43 64 1 28 23 -19 53 -42 65 -50 13 -8 21
-21 18 -29 -2 -7 16 1 42 18 48 33 59 48 29 37 -20 -7 -6 6 57 55 l35 26 -35
-4 c-34 -4 -34 -4 15 22 68 36 79 49 35 40 -44 -9 -32 4 23 27 l42 17 -40 1
c-48 0 -32 15 29 26 l40 6 -27 15 c-15 7 -27 16 -27 19 0 6 34 0 63 -12 12 -4
14 0 10 17 -6 20 -4 21 30 15 34 -6 37 -5 37 16 0 22 2 21 31 -10 23 -24 34
-30 43 -23 7 6 16 8 20 4 3 -4 75 -8 159 -10 135 -2 154 -4 168 -21 14 -19 16
-19 37 -2 17 14 51 19 164 25 130 7 146 10 171 31 31 26 47 30 47 13 0 -6 9
-8 20 -4 16 5 20 2 20 -15 0 -20 3 -21 50 -15 59 8 68 -7 18 -29 l-33 -14 30
-2 c17 -1 46 -8 65 -15 l35 -13 -30 -2 -30 -1 40 -20 40 -19 -45 6 -45 6 55
-38 c75 -50 81 -57 45 -49 -26 6 -23 2 22 -29 62 -43 94 -56 140 -58 43 -2 42
-12 -4 -30 l-38 -14 55 -27 c49 -25 52 -28 31 -34 -20 -5 -13 -12 60 -59 53
-34 77 -54 64 -54 -16 -1 -10 -10 28 -45 52 -48 53 -51 13 -35 -14 5 -26 7
-26 5 0 -3 19 -26 41 -50 31 -34 37 -45 24 -45 -16 0 -16 -2 -1 -25 9 -14 12
-25 6 -25 -11 0 -183 204 -188 223 -4 17 -216 237 -249 259 -38 24 -50 23 -27
-4 23 -26 15 -21 -79 43 -64 45 -145 79 -186 79 -9 0 7 -16 36 -35 100 -67
128 -131 98 -223 -10 -31 -19 -60 -19 -64 -1 -4 -10 -13 -20 -21 -22 -16 -16
-31 26 -57 l29 -18 -34 -6 c-41 -8 -86 -44 -103 -83 l-12 -28 -1 25 c-1 36 23
67 64 80 46 15 44 26 -6 34 -35 6 -39 9 -29 21 15 18 -1 20 -19 3 -11 -10 -13
-10 -7 0 11 18 -2 15 -50 -13 -43 -26 -84 -90 -84 -133 0 -12 -4 -22 -10 -22
-5 0 -10 21 -10 48 -1 55 -13 42 -29 -31 -9 -40 -7 -58 19 -142 19 -62 30
-119 30 -157 0 -43 3 -57 12 -52 8 5 9 2 5 -9 -4 -10 -9 -23 -13 -31 -3 -8 6
-18 25 -26 17 -7 36 -19 43 -28 10 -12 10 -14 1 -8 -21 12 -15 -4 15 -43 47
-59 50 -68 17 -47 -57 38 -110 64 -143 71 l-33 7 35 -47 c39 -51 45 -72 20
-82 -13 -5 -13 -7 -2 -14 10 -6 9 -11 -6 -22 -19 -14 -19 -15 2 -21 26 -9 29
-26 5 -26 -13 0 -9 -8 17 -31 l35 -31 -30 7 -30 6 40 -36 c22 -20 32 -34 21
-31 -18 6 -18 6 0 -21 9 -16 30 -45 44 -65 22 -30 29 -53 34 -117 7 -73 5 -85
-22 -155 -17 -42 -42 -92 -57 -111 -27 -37 -92 -76 -122 -74 -10 0 1 7 24 15
51 19 88 54 120 118 20 39 22 50 11 57 -10 7 -10 9 0 9 16 0 42 60 42 97 0 41
-43 98 -93 122 -37 18 -62 21 -175 21 -81 0 -142 -5 -159 -12 -56 -25 -101
-60 -113 -89 -14 -32 -7 -113 15 -187 12 -39 12 -49 -1 -74 -8 -16 -12 -33 -9
-39 4 -5 1 -17 -6 -26 -11 -13 -10 -17 4 -28 14 -10 16 -18 7 -39 -13 -36 -13
-36 10 -36 26 0 25 -12 -2 -37 -42 -39 -158 -43 -144 -6 5 11 -3 25 -20 40
-22 19 -25 25 -14 38 7 8 -8 3 -34 -11 -25 -14 -46 -29 -46 -34 0 -19 78 -72
127 -86 50 -15 56 -14 149 11 54 15 122 36 151 47 30 11 57 18 60 15 2 -3 -53
-25 -124 -48 -91 -30 -145 -43 -188 -43 -70 -1 -142 23 -175 59 -29 31 -40 32
-40 1 0 -29 33 -72 70 -91 33 -17 97 -20 135 -5 31 12 124 -9 188 -41 83 -43
297 -37 337 9 22 26 95 45 119 32 11 -5 39 -10 62 -10 35 0 47 6 80 39 53 53
51 74 -13 135 -29 27 -44 44 -32 38 11 -6 37 -29 57 -51 20 -23 38 -41 40 -41
2 0 9 18 16 41 15 51 3 68 -83 111 -32 16 -56 32 -53 34 3 3 18 -1 34 -9 15
-8 38 -18 51 -21 21 -7 22 -5 18 36 -3 40 -6 43 -35 46 -17 2 -31 8 -31 13 0
7 12 8 30 4 27 -6 30 -4 30 19 0 14 -9 48 -20 76 -11 28 -20 56 -20 62 0 21
17 -5 30 -44 9 -32 16 -38 38 -38 15 0 42 -4 60 -9 35 -10 48 -3 80 45 12 17
12 16 8 -11 -2 -16 -7 -37 -11 -46 -4 -11 2 -20 22 -28 16 -6 49 -30 73 -52
47 -43 32 -36 -40 19 -53 40 -77 41 -86 5 -5 -20 -3 -30 11 -37 10 -6 40 -29
68 -51 27 -22 55 -44 63 -49 8 -7 22 -5 41 4 15 7 33 14 40 16 7 1 42 10 78
19 38 9 79 13 96 10 28 -6 24 -9 -63 -56 -187 -99 -254 -129 -323 -143 -38 -8
-82 -12 -96 -9 -20 4 -31 -2 -53 -31 -41 -54 -77 -69 -147 -61 -55 6 -61 5
-96 -23 -55 -43 -77 -52 -123 -52 -28 0 -43 -5 -47 -16 -5 -13 -7 -13 -14 -2
-7 11 -12 11 -30 -1 -20 -12 -24 -11 -36 5 -12 16 -13 16 -13 1 0 -9 -4 -17
-10 -17 -5 0 -10 7 -10 16 0 11 -6 13 -19 9 -28 -9 -129 20 -155 44 -35 33
-72 41 -147 35 -74 -7 -85 -19 -57 -64 10 -16 10 -24 -1 -41 -11 -19 -11 -21
3 -16 20 8 23 -32 4 -52 -11 -11 -9 -12 10 -6 23 7 23 7 7 -30 -19 -46 -19
-51 0 -35 12 10 15 9 15 -7 0 -20 -24 -61 -48 -80 -12 -10 -13 -13 -2 -13 7 0
22 7 32 17 36 32 18 -8 -24 -53 -38 -41 -39 -44 -14 -35 25 10 26 9 16 -9 -6
-11 -27 -29 -48 -39 -20 -11 -32 -20 -25 -21 21 0 62 19 83 40 34 34 24 -4
-11 -45 -17 -19 -27 -35 -22 -35 6 0 18 9 28 20 25 28 30 18 10 -22 -16 -32
-15 -32 2 -12 10 12 24 30 31 40 11 17 12 17 6 -6 -17 -69 -74 -123 -141 -136
-58 -11 -111 12 -180 79 -71 68 -87 102 -18 38 53 -48 76 -55 33 -9 -35 38
-82 128 -93 178 l-7 35 27 -25 28 -25 -28 45 c-15 25 -21 39 -14 33 7 -7 17
-13 21 -13 9 0 -24 88 -49 128 -9 15 5 3 31 -25 36 -41 59 -56 98 -68 61 -18
58 -17 58 -6 0 5 -14 13 -32 16 -20 5 -54 30 -92 69 -84 84 -186 196 -179 196
4 0 26 -12 50 -26 25 -14 47 -24 49 -21 3 2 -18 29 -46 60 -27 30 -50 58 -50
62 0 3 25 -7 55 -23 30 -17 55 -26 55 -22 0 22 -89 81 -157 104 -48 16 -89 38
-115 62 -47 42 -119 77 -150 72 -17 -2 -9 -11 40 -41 73 -45 85 -59 42 -51
l-30 7 34 -52 c132 -195 -3 -533 -232 -582 l-57 -12 30 -13 c17 -7 56 -13 88
-14 l59 0 -29 -37 c-42 -53 -43 -56 -53 -119 -5 -31 -17 -68 -25 -81 -20 -30
-88 -62 -135 -63 -34 -1 -34 -2 -10 -12 14 -5 56 -7 97 -4 l72 6 -56 -87 c-84
-129 -115 -209 -121 -318 -4 -71 -10 -101 -32 -145 -42 -85 -49 -116 -54 -240
-3 -63 -10 -131 -15 -150 l-10 -35 25 30 c62 74 116 239 98 298 -13 43 13 2
47 -75 19 -43 35 -74 37 -69 1 4 -9 53 -24 107 -14 54 -28 140 -31 190 -7 111
13 187 87 333 l47 96 7 -55 c11 -87 38 -210 47 -210 4 0 10 10 12 22 3 14 5 8
6 -15 0 -21 6 -48 13 -60 11 -21 11 -21 19 -2 7 19 8 19 8 -2 1 -25 48 -130
62 -139 12 -7 11 3 -1 27 -6 10 -7 19 -2 19 5 0 15 -13 22 -29 6 -16 22 -39
36 -52 22 -21 24 -21 24 -3 0 15 4 13 19 -11 21 -34 81 -93 81 -80 0 5 18 -16
41 -46 22 -30 44 -53 49 -52 12 3 59 -110 66 -161 11 -77 27 -68 20 10 l-6 69
35 -67 c19 -38 38 -68 41 -68 3 0 2 21 -1 47 l-6 48 31 -50 c72 -113 72 -113
65 -85 -4 19 0 15 19 -15 14 -22 26 -42 26 -45 1 -3 9 -36 20 -75 l18 -70 1
67 c1 87 -26 160 -92 246 -101 133 -142 188 -159 212 l-18 25 5 -30 c7 -34 4
-32 -52 55 -19 30 -32 47 -29 37 10 -32 -13 -8 -45 46 -24 41 -30 46 -26 24 3
-21 1 -25 -9 -17 -17 15 -54 96 -54 120 0 11 -5 20 -11 20 -8 0 -9 -13 -4 -38
4 -23 3 -33 -3 -27 -13 14 -32 74 -32 104 l-1 26 -12 -29 -13 -29 -12 40 c-7
22 -12 52 -12 67 0 34 -18 34 -23 -1 -2 -16 -5 0 -6 34 0 34 3 73 9 88 14 38
-6 22 -30 -23 l-19 -37 -1 64 c0 60 -1 63 -15 45 -14 -17 -15 -12 -13 59 3 67
1 75 -11 60 -12 -16 -13 -13 -7 26 4 24 13 57 22 75 l15 31 -25 -28 c-21 -23
-26 -25 -26 -10 1 10 7 36 15 58 19 53 18 55 -10 20 -24 -29 -25 -29 -25 -7 0
32 25 78 73 136 30 36 36 48 22 43 -16 -6 -15 -3 5 14 20 17 21 20 5 14 -62
-22 -111 -35 -134 -34 -20 0 -13 5 27 20 34 13 77 43 117 80 l63 60 0 -43 c0
-24 5 -55 10 -69 20 -50 30 -134 23 -181 -10 -59 9 -50 35 17 16 44 16 62 -2
205 -3 28 1 70 10 107 21 81 20 163 -3 247 l-19 68 39 -38 c44 -43 121 -181
96 -171 -12 4 -8 -9 13 -56 27 -56 32 -91 9 -57 -11 15 -9 2 8 -67 6 -26 5
-27 -11 -14 -16 13 -17 12 -12 -10 8 -40 15 -115 10 -101 -3 6 -9 12 -14 12
-4 0 -2 -24 6 -53 18 -66 17 -67 -6 -37 l-21 25 7 -30 c4 -16 13 -47 21 -69
17 -50 17 -61 -1 -47 -12 10 -12 6 0 -35 8 -26 14 -59 14 -73 0 -25 -1 -24
-25 12 -14 20 -27 37 -29 37 -2 0 5 -23 16 -52 11 -29 21 -67 24 -86 2 -18 9
-42 14 -52 14 -27 12 -34 -5 -20 -21 18 -19 7 12 -53 15 -29 27 -56 28 -62 0
-5 8 -35 17 -65 10 -30 20 -93 24 -140 5 -57 10 -77 14 -60 6 23 8 22 19 -15
6 -22 20 -56 31 -75 l19 -35 1 30 c0 26 4 22 24 -28 28 -67 36 -78 36 -51 1
12 10 3 25 -26 13 -25 56 -83 95 -130 78 -93 129 -185 137 -249 10 -76 25 -44
22 45 l-4 86 72 -76 c87 -92 128 -161 152 -256 l18 -72 26 45 c15 25 66 90
115 144 114 128 155 178 187 233 26 43 29 32 9 -27 -4 -10 5 -3 19 16 27 35
33 51 62 162 9 38 33 91 53 122 42 62 200 232 189 203 -12 -31 19 -1 55 55 17
27 33 49 35 49 2 0 -3 -16 -11 -35 -18 -42 -13 -44 20 -7 30 33 55 77 65 117
7 25 8 23 5 -13 -4 -42 -4 -43 14 -27 22 20 49 95 51 139 2 30 2 31 6 4 6 -40
21 -34 28 10 4 20 8 44 9 52 2 9 8 3 15 -15 20 -48 9 -172 -19 -223 -28 -49
-37 -48 -20 3 7 20 10 38 8 41 -3 2 -21 -20 -41 -48 -38 -54 -135 -165 -121
-139 10 20 -43 -19 -110 -80 -73 -66 -122 -142 -155 -242 -35 -102 -88 -209
-135 -270 -20 -26 -36 -50 -36 -53 0 -24 191 161 230 223 36 57 40 45 5 -15
l-25 -44 50 42 c61 51 115 113 140 160 21 38 26 28 10 -16 -6 -15 -9 -29 -6
-31 8 -8 56 76 64 110 l6 32 6 -33 5 -34 136 139 c77 78 150 162 167 193 39
67 41 59 6 -17 -15 -30 -74 -114 -131 -187 -163 -203 -260 -348 -290 -431
l-14 -40 50 56 c27 30 85 79 128 109 43 29 93 67 111 84 l33 31 -15 -42 c-8
-22 -22 -56 -31 -74 -13 -29 -8 -25 40 25 30 33 69 86 85 119 29 58 41 58 20
0 -10 -27 -9 -27 20 7 17 19 43 61 58 92 15 31 30 57 34 57 4 1 6 -5 4 -11 -3
-7 -7 -26 -11 -43 l-7 -30 23 29 c12 15 37 58 56 94 28 54 33 60 28 32 -14
-69 -48 -157 -100 -257 -29 -57 -51 -103 -49 -103 11 0 101 134 134 200 99
197 129 370 82 474 -14 30 -17 44 -8 37 23 -19 55 -105 61 -162 3 -30 2 -91
-2 -136 -5 -46 -5 -83 -1 -83 4 0 8 8 8 18 1 15 2 15 16 -3 38 -49 87 -164
105 -247 18 -84 42 -148 55 -148 3 0 2 5 -2 11 -3 6 -10 71 -14 145 -7 120
-11 140 -39 201 -18 37 -45 88 -60 113 -23 37 -30 60 -34 125 -5 89 -31 156
-91 246 -19 29 -34 54 -32 56 1 2 27 -2 57 -8 42 -8 65 -8 99 2 l45 13 -50 6
c-104 12 -150 64 -166 190 -10 86 -32 140 -80 201 -30 39 -26 49 21 49 24 0
90 31 90 42 0 4 -20 8 -45 8 -126 0 -240 145 -220 278 13 86 41 136 100 174
l30 20 -37 -5 c-21 -3 -38 -4 -38 -3 0 2 43 32 95 66 53 35 94 65 92 67 -7 7
-183 -48 -245 -77 -68 -32 -126 -69 -119 -77 3 -2 20 3 39 13 31 16 30 13 -23
-47 -31 -35 -78 -76 -105 -91 -27 -15 -44 -28 -39 -28 6 0 41 18 79 40 37 22
71 40 75 40 13 0 -168 -179 -196 -193 -36 -18 -102 -27 -128 -18 -16 7 -13 9
17 15 20 4 47 15 60 26 l23 19 -52 -6 c-37 -4 -53 -2 -53 6 0 6 9 11 20 11 26
0 101 29 120 47 13 12 11 13 -13 4 -16 -6 -45 -11 -65 -11 l-37 1 50 17 c49
17 180 99 140 88 -82 -23 -191 -33 -180 -16 3 6 17 10 31 10 38 0 102 35 181
98 144 115 284 169 406 156 31 -4 57 -4 57 -1 0 4 -17 16 -37 27 l-38 20 48
-2 c26 -2 47 -1 47 3 0 8 -52 54 -75 67 -16 9 -17 11 -4 12 9 0 28 -9 43 -21
31 -24 31 -26 7 43 -24 71 -47 114 -85 163 -31 41 -19 36 38 -14 l28 -26 -30
60 c-17 33 -42 77 -56 98 -28 41 -27 57 6 57 11 0 38 10 59 22 l38 21 -50 17
c-54 19 -93 50 -115 92 -20 38 -17 55 8 63 l23 8 -23 4 c-42 8 -57 48 -57 153
1 85 4 102 32 160 17 36 51 86 76 113 24 26 40 50 35 53 -4 3 -6 10 -2 15 3 5
1 15 -5 22 -5 7 -12 35 -15 62 -2 28 -7 57 -11 66 -3 10 -1 20 4 24 6 3 9 11
5 16 -3 5 6 19 21 31 14 11 24 23 21 26 -4 3 0 12 8 21 21 25 28 77 11 91 -22
18 -19 26 30 79 82 87 105 183 69 288 -10 29 -14 62 -11 87 4 23 1 56 -6 74
-9 26 -8 44 6 96 19 72 22 171 7 261 -5 33 -11 130 -14 215 -6 227 -54 399
-128 453 -22 17 -31 18 -59 8 -110 -38 -286 -251 -395 -479 -25 -51 -74 -140
-109 -198 -36 -57 -65 -109 -65 -115 0 -6 -5 -7 -10 -4 -6 3 -15 -6 -21 -22
-5 -15 -14 -30 -18 -33 -4 -3 -17 -21 -29 -40 -41 -67 -39 -65 -55 -52 -12 10
-15 3 -20 -43 -3 -31 -14 -72 -24 -93 l-18 -37 -135 -7 c-74 -4 -216 -5 -315
-2 -223 8 -228 11 -250 152 -6 35 -9 41 -21 31 -17 -14 -36 7 -90 98 -20 35
-39 61 -43 59 -3 -2 -50 73 -105 167 -161 281 -187 322 -237 389 -71 95 -175
197 -222 219 -47 21 -53 21 -83 9z m2366 -462 c0 -24 9 -86 20 -138 44 -214
35 -287 -56 -458 -54 -100 -82 -182 -63 -182 5 0 17 17 28 38 10 20 33 50 50
66 17 16 34 44 37 63 9 47 25 30 18 -20 -6 -51 -26 -83 -65 -105 -16 -10 -29
-21 -29 -25 0 -19 73 -120 91 -124 48 -13 6 -55 -146 -143 -55 -32 -101 -57
-103 -55 -2 1 13 29 34 60 20 32 31 54 25 51 -16 -10 -13 6 6 34 l17 25 -26
-17 c-38 -25 -41 -23 -22 14 10 20 18 64 20 117 6 114 7 120 67 240 l52 104
-2 106 c0 58 -3 153 -5 211 -2 87 0 111 16 143 24 49 36 47 36 -5z m-2135 4
c17 -8 43 -25 58 -36 32 -24 178 -201 176 -213 -1 -4 7 -28 18 -53 43 -94 41
-98 -26 -40 -33 29 -58 56 -56 61 5 7 -17 27 -61 56 -17 11 -15 12 11 7 30 -5
30 -5 -15 36 -43 40 -43 41 -15 35 l30 -7 -40 37 c-22 20 -34 34 -27 30 6 -3
12 -2 12 4 0 11 -72 71 -115 95 -26 15 -27 16 -5 10 14 -4 39 -13 55 -22z
m1865 -23 c-42 -27 -59 -43 -51 -48 9 -6 5 -13 -13 -24 -14 -10 -30 -26 -37
-38 -10 -19 -9 -20 13 -14 22 7 5 -10 -81 -83 -17 -15 -18 -15 37 2 33 11 27
2 -20 -29 -24 -16 -37 -30 -31 -32 20 -7 3 -30 -54 -74 l-55 -41 7 33 c22 105
173 299 279 360 75 43 79 35 6 -12z m-2129 -346 c15 -50 60 -138 109 -218 22
-36 36 -65 31 -65 -17 0 -103 84 -120 119 -52 101 -74 246 -54 342 6 28 9 18
14 -53 4 -48 13 -105 20 -125z m2488 63 c1 -79 -6 -49 -12 49 -4 63 -3 77 3
45 5 -25 9 -67 9 -94z m-2572 37 c-3 -10 -5 -4 -5 12 0 17 2 24 5 18 2 -7 2
-21 0 -30z m586 -104 l42 -41 -47 31 c-49 33 -67 51 -48 51 6 0 30 -18 53 -41z
m1402 -9 c-21 -16 -41 -30 -44 -30 -11 1 59 60 71 60 6 0 -6 -13 -27 -30z
m-1427 -17 c60 -28 82 -61 82 -124 l0 -43 -36 35 -37 34 32 -44 c30 -43 45
-99 19 -73 -16 16 -31 15 -22 0 4 -7 -19 12 -53 43 -33 30 -85 66 -116 80 -31
13 -57 27 -57 32 0 14 72 6 150 -17 24 -8 24 -8 5 8 -14 10 -16 15 -6 16 18 0
-12 35 -51 58 -71 42 0 38 90 -5z m1999 -5 c-3 -7 -5 -2 -5 12 0 14 2 19 5 13
2 -7 2 -19 0 -25z m-514 -2 l-28 -24 30 4 30 5 -30 -15 -30 -15 30 6 c17 3 40
10 53 14 13 5 44 9 70 8 l47 0 -55 -21 c-79 -30 -128 -63 -189 -127 -54 -56
-61 -54 -34 15 4 12 3 15 -5 10 -7 -4 -12 -3 -12 3 0 5 5 13 10 16 16 10 12
25 -5 19 -13 -5 -14 -2 -4 22 15 41 38 64 84 85 56 26 71 23 38 -5z m55 -163
c-8 -10 -41 -51 -73 -92 -49 -63 -60 -71 -65 -55 -10 25 10 61 57 105 54 51
117 83 81 42z m-2024 -54 c4 -17 14 -29 30 -33 16 -4 30 -21 46 -58 21 -49 22
-58 11 -114 -9 -45 -10 -72 -2 -100 6 -22 11 -42 11 -46 0 -12 -105 22 -117
39 -22 29 -14 53 39 120 l52 66 -47 39 c-46 39 -47 41 -46 97 0 56 10 52 23
-10z m483 -1 c21 -20 48 -78 36 -78 -6 0 -103 72 -103 77 0 1 8 0 18 -4 13 -5
11 1 -8 21 l-25 27 30 -11 c17 -6 40 -21 52 -32z m-65 -37 c45 -29 79 -68 91
-106 4 -12 -4 -7 -21 14 -15 19 -53 54 -86 78 -65 48 -55 59 16 14z m1611 -9
c-18 -15 -47 -43 -64 -62 l-30 -35 18 34 c19 34 80 91 98 91 5 0 -5 -13 -22
-28z m-1573 -117 c46 -23 50 -28 44 -53 -4 -15 -8 -29 -10 -31 -1 -2 -27 22
-58 53 -59 61 -52 70 24 31z m1554 13 c-4 -7 -21 -30 -38 -50 -32 -42 -58 -52
-33 -15 15 23 15 24 -9 19 -40 -7 -27 7 29 32 63 30 60 29 51 14z m-1543 -110
c19 -36 -9 -18 -31 20 l-22 37 22 -20 c12 -11 26 -28 31 -37z m1579 19 c0 -2
-12 -14 -27 -28 l-28 -24 24 28 c23 25 31 32 31 24z m-1177 -335 c28 -31 37
-68 25 -103 l-11 -32 -13 24 c-19 34 -18 58 1 33 14 -18 14 -17 15 12 0 19 -9
41 -25 58 -13 14 -20 26 -16 26 4 0 15 -8 24 -18z m864 2 c-3 -3 -12 -4 -19
-1 -8 3 -5 6 6 6 11 1 17 -2 13 -5z m22 -51 c71 -35 162 -125 195 -193 l27
-55 -28 35 c-59 75 -103 109 -159 126 -31 9 -69 13 -86 10 -18 -3 -27 -2 -23
4 3 6 13 10 21 10 16 0 19 16 4 25 -6 3 -17 19 -25 36 -14 27 -14 29 3 29 10
0 42 -12 71 -27z m-109 -70 c0 -7 -4 -13 -10 -13 -5 0 -10 11 -10 24 0 13 -2
33 -5 43 -3 10 1 5 9 -12 8 -16 15 -36 16 -42z m135 -72 c35 -16 99 -71 83
-71 -3 0 -26 11 -49 25 -57 32 -106 32 -153 0 -40 -27 -43 -26 -19 12 16 23
63 52 88 52 6 0 28 -8 50 -18z m-1026 -6 c27 -14 41 -33 41 -58 0 -6 -10 -1
-22 11 -47 43 -108 35 -184 -23 -47 -36 -53 -31 -13 11 68 72 120 89 178 59z
m-35 -84 c3 -4 -6 -13 -19 -19 -25 -12 -42 -1 -30 18 8 12 42 13 49 1z m996 0
c0 -9 -23 -21 -41 -21 -4 0 -6 7 -3 15 7 16 44 21 44 6z m110 -81 c-17 -42
-65 -80 -100 -80 -52 0 -125 83 -92 104 5 3 22 -8 37 -24 16 -17 36 -30 44
-30 29 0 80 39 87 66 6 23 8 24 22 11 13 -13 13 -20 2 -47z m-1190 41 c0 -5
12 -23 26 -40 35 -42 67 -40 111 4 39 39 56 38 47 -3 -17 -72 -101 -103 -164
-60 -37 25 -57 65 -47 92 7 17 27 22 27 7z m1270 -38 c0 -10 -60 -100 -76
-113 -8 -7 -14 -8 -14 -2 0 5 7 15 15 22 8 7 15 17 15 23 0 5 -10 2 -22 -9
l-23 -19 20 25 c52 67 85 95 85 73z m-1017 -46 c18 18 4 -36 -16 -61 -20 -24
-26 -27 -44 -18 -11 6 -23 18 -26 26 -5 12 1 13 30 9 38 -6 38 -7 15 57 -4 12
-1 11 15 -3 11 -9 23 -14 26 -10z m682 -36 c-8 -36 -25 -41 -25 -8 0 22 19 51
28 43 2 -3 1 -18 -3 -35z m-842 -18 c-13 -2 -35 -2 -50 0 -16 2 -5 4 22 4 28
0 40 -2 28 -4z m1087 -33 c10 -7 11 -10 2 -10 -7 0 -17 -11 -22 -25 -5 -14
-21 -30 -35 -37 -14 -6 -25 -18 -25 -25 0 -10 -6 -12 -20 -8 -14 5 -20 2 -20
-10 0 -9 -4 -13 -10 -10 -5 3 -10 2 -10 -4 0 -6 -7 -8 -15 -5 -12 5 -12 0 -5
-27 15 -52 2 -46 -24 12 -17 35 -22 57 -16 63 6 6 10 24 10 41 0 17 5 36 12
43 15 15 156 16 178 2z m401 -416 c1 -83 -3 -112 -24 -173 -23 -64 -66 -145
-74 -137 -2 2 8 23 21 47 48 86 61 153 60 304 0 92 3 126 8 100 4 -22 8 -85 9
-141z m-2132 -25 c-16 -6 -35 -6 -50 0 -20 8 -16 10 26 10 43 -1 46 -2 24 -10z
m2269 -26 c-10 -2 -26 -2 -35 0 -10 3 -2 5 17 5 19 0 27 -2 18 -5z m-1074 -83
c73 -10 116 -37 116 -71 0 -25 -20 -29 -174 -34 -147 -4 -186 -16 -186 -55 0
-25 -12 -25 -34 -1 -16 18 -16 22 5 70 32 75 97 116 169 105 19 -3 66 -9 104
-14z m-204 -265 c37 -8 68 9 76 42 6 22 8 23 16 9 27 -48 -29 -99 -84 -78 -18
6 -34 10 -36 7 -2 -2 5 -19 16 -37 21 -33 45 -52 92 -75 14 -6 19 -12 12 -12
-23 -2 -68 27 -101 65 -32 36 -45 61 -62 119 l-9 30 25 -32 c14 -17 38 -34 55
-38z m1310 42 c8 -7 22 -21 30 -32 11 -15 7 -14 -15 5 -17 14 -34 28 -39 32
-6 5 -6 8 0 8 5 0 16 -6 24 -13z m-971 -45 c36 3 40 2 25 -9 -37 -27 -104 -4
-104 36 0 12 5 10 19 -8 15 -20 25 -23 60 -19z m10 -303 c102 -31 144 -35 204
-18 22 6 41 8 44 5 10 -10 -65 -36 -102 -36 -42 0 -271 73 -300 95 -17 12 -13
12 20 -2 22 -9 82 -29 134 -44z m-454 -189 c-10 -20 -15 -57 -14 -117 0 -83 1
-87 16 -65 22 32 39 28 73 -20 43 -59 70 -155 69 -242 l-1 -71 -14 79 c-16 97
-26 111 -19 25 5 -58 5 -61 -7 -36 -12 25 -13 16 -14 -80 0 -151 -33 -238
-145 -388 l-23 -30 24 20 c28 23 22 14 -43 -68 -78 -96 -106 -164 -36 -87 23
26 38 37 34 25 -19 -60 -26 -115 -16 -132 9 -16 10 -15 11 7 0 14 14 49 31 78
32 56 47 65 29 18 -14 -37 -12 -125 4 -161 12 -29 13 -27 13 36 0 45 7 79 21
110 15 32 19 36 14 14 -16 -67 -7 -158 21 -216 34 -70 61 -98 47 -47 -22 76
-7 67 30 -20 60 -138 63 -251 11 -375 l-18 -41 -35 64 c-20 36 -41 82 -48 103
-14 45 -24 49 -18 7 3 -16 4 -30 3 -30 -2 0 -25 35 -53 78 -60 90 -92 162 -92
203 0 42 -16 36 -23 -8 -8 -52 6 -106 42 -165 38 -60 23 -54 -20 9 -57 82 -83
204 -59 268 8 20 7 26 -2 23 -22 -8 -50 -67 -57 -121 l-7 -52 -13 59 c-15 70
-8 128 23 191 22 42 22 45 4 28 -26 -24 -45 -61 -63 -125 l-15 -53 4 65 c4 78
33 139 103 219 l48 55 -47 -33 c-27 -17 -64 -48 -83 -68 -56 -57 -41 -27 27
56 35 42 52 68 38 58 -41 -29 -129 -69 -143 -64 -6 2 2 11 18 20 34 17 115
100 135 136 12 23 12 23 -22 -2 -70 -54 -211 -92 -248 -67 -12 7 -8 10 15 10
17 0 49 9 71 19 41 19 124 86 124 101 0 4 -21 -3 -47 -16 -25 -13 -58 -24 -72
-24 -25 0 -25 1 7 17 19 9 55 36 80 60 l47 44 -42 -21 c-76 -37 -67 -21 23 38
152 100 189 134 224 206 32 64 33 71 41 248 10 211 14 244 30 264 19 23 21 16
4 -16z m1013 -107 c-8 -10 -27 -40 -43 -68 -16 -27 -42 -62 -58 -77 -24 -24
-26 -28 -11 -28 16 -1 15 -3 -6 -15 -33 -19 -141 -19 -185 -1 -19 8 -35 16
-35 18 0 2 26 3 58 4 57 0 125 24 167 58 19 15 19 16 -9 6 -51 -19 -129 -14
-172 9 l-39 22 39 -5 c21 -3 62 0 90 6 52 10 192 73 202 90 3 5 9 7 12 4 3 -3
-2 -14 -10 -23z m-602 -118 c-2 -33 -1 -69 4 -80 7 -17 9 -14 10 15 1 19 5 44
10 55 7 15 9 9 9 -26 2 -114 84 -258 164 -288 47 -18 66 -13 31 8 -35 21 -67
63 -79 101 l-8 25 24 -20 23 -20 -22 36 c-31 51 -28 54 16 21 57 -45 92 -55
181 -51 44 2 78 2 76 0 -2 -2 -26 -14 -52 -28 l-48 -24 43 4 c51 6 47 -4 -16
-44 -33 -21 -40 -29 -25 -29 29 0 84 20 116 43 16 10 30 17 33 14 7 -6 -89
-79 -133 -101 -18 -9 -33 -19 -33 -22 0 -11 55 7 83 27 15 11 27 15 27 10 0
-15 -59 -57 -120 -85 -30 -14 -47 -26 -37 -26 10 0 32 7 50 16 30 15 31 15 16
-1 -9 -9 -44 -27 -78 -39 l-62 -22 49 -32 c51 -33 102 -109 102 -153 l0 -23
-16 22 c-8 12 -32 31 -52 41 -36 18 -112 36 -112 27 0 -3 14 -28 32 -56 25
-41 33 -66 36 -115 2 -35 -1 -71 -7 -81 -8 -15 -10 -7 -11 39 0 86 -33 143
-103 178 l-38 20 25 -38 c59 -91 72 -237 27 -318 -12 -22 -18 -29 -14 -15 4
14 8 59 8 100 -1 85 -12 111 -100 245 -66 98 -95 171 -95 233 l0 47 19 -30
c19 -32 61 -73 61 -61 0 5 -8 20 -19 34 -20 30 -46 101 -38 108 2 3 12 -7 21
-20 16 -26 112 -96 130 -96 5 0 -12 15 -38 34 -55 39 -106 105 -147 191 -46
95 -39 215 18 314 l26 44 19 -24 c15 -20 18 -35 14 -84z m334 -160 c73 0 80 2
183 53 5 2 1 -7 -8 -21 -9 -14 -40 -38 -68 -52 -104 -51 -242 -19 -288 68 -8
13 4 10 48 -15 51 -29 66 -33 133 -33z m555 -46 c45 -50 74 -112 75 -158 l0
-35 -29 46 c-40 63 -64 70 -34 10 23 -46 28 -85 17 -141 -7 -33 -24 -43 -24
-13 0 9 -5 24 -11 32 -8 12 -10 10 -8 -10 1 -14 1 -41 0 -60 l-1 -35 -23 40
c-12 22 -41 53 -64 70 -42 30 -60 56 -23 33 28 -18 36 -3 23 45 -6 23 -9 44
-7 47 3 2 23 -5 45 -17 31 -17 39 -18 39 -7 0 23 -26 78 -46 98 -18 18 -17 19
30 12 l47 -7 -17 28 c-10 15 -24 36 -32 46 -31 36 7 15 43 -24z m-1404 -88
c-40 -78 -133 -122 -213 -101 -40 11 -123 59 -115 67 2 2 23 -4 47 -12 99 -35
226 -2 273 71 29 44 34 27 8 -25z m418 -181 c2 -37 44 -122 105 -208 89 -128
100 -155 100 -247 0 -99 -5 -145 -14 -145 -4 0 -9 26 -12 58 -5 65 -36 139
-94 217 l-36 50 6 -36 c4 -20 17 -64 31 -97 56 -138 53 -274 -9 -406 -48 -102
-70 -127 -44 -51 28 82 21 193 -17 290 -36 91 -46 101 -29 28 15 -63 17 -134
4 -173 -6 -19 -8 -11 -10 35 -1 33 -7 78 -15 100 l-13 40 -1 -72 c-1 -45 -9
-98 -23 -138 l-21 -66 -22 73 c-12 40 -31 94 -43 120 -63 142 -48 276 47 416
64 95 91 159 92 222 0 40 3 50 9 35 5 -11 9 -31 9 -45z m870 10 c22 -11 51
-80 51 -118 -1 -35 -28 -97 -30 -67 0 11 -7 31 -15 45 -14 24 -14 23 -15 -30
0 -35 -3 -50 -9 -41 -6 10 -11 1 -16 -28 -11 -69 -25 -57 -25 21 0 41 -7 100
-15 132 -9 33 -13 61 -11 64 3 2 21 -5 41 -17 33 -19 35 -20 25 -1 -11 20 -14
50 -4 50 3 0 13 -4 23 -10z m-964 -119 c-22 -44 -27 -38 -7 9 9 21 18 35 20
30 2 -5 -4 -22 -13 -39z"/>
<path d="M2866 1798 c-3 -13 -7 -39 -11 -58 -8 -53 -49 -133 -92 -181 -44 -49
-15 -38 34 13 43 44 74 118 80 189 6 58 -2 81 -11 37z"/>
<path d="M3220 1807 c0 -2 15 -16 33 -33 l32 -29 -29 33 c-28 30 -36 37 -36
29z"/>
<path d="M3510 1435 c13 -14 26 -25 28 -25 3 0 -5 11 -18 25 -13 14 -26 25
-28 25 -3 0 5 -11 18 -25z"/>
<path d="M2990 4541 c0 -5 -16 -28 -36 -52 -36 -43 -40 -78 -12 -104 8 -7 9
-6 4 3 -4 6 -3 12 2 12 11 0 57 -100 70 -155 20 -78 25 -143 32 -390 l7 -250
1 225 c2 244 14 383 37 433 l14 32 -5 -40 c-5 -40 -5 -40 22 17 15 32 31 55
36 52 4 -3 18 15 29 40 19 45 35 64 22 29 -5 -14 -3 -16 7 -6 16 15 7 51 -22
88 -20 26 -22 26 -29 9 -6 -17 -8 -17 -17 6 -8 18 -11 20 -11 8 -1 -10 -5 -18
-10 -18 -5 0 -11 8 -14 18 -2 12 -8 7 -22 -20 -23 -47 -32 -48 -41 -4 -4 24
-10 33 -20 29 -8 -3 -18 5 -24 21 -9 26 -20 35 -20 17z"/>
<path d="M2867 4519 c-9 -6 -22 -7 -27 -4 -20 12 -15 -53 6 -74 12 -13 16 -10
29 23 20 47 17 69 -8 55z"/>
<path d="M2900 4460 c-7 -13 -7 -26 -2 -37 7 -12 10 -8 14 21 5 41 3 44 -12
16z"/>
<path d="M2227 3422 c-15 -23 -20 -118 -8 -172 12 -54 1 -120 -19 -120 -5 0
-7 8 -4 18 4 11 -1 8 -15 -8 l-21 -25 0 25 c-1 24 -1 24 -15 6 -15 -19 -15
-19 -15 5 0 17 -3 20 -9 10 -6 -9 -13 11 -21 60 -17 101 -16 99 -29 54 -34
-120 17 -291 109 -368 35 -30 56 -37 119 -40 43 -2 44 -3 57 -48 15 -50 47
-88 59 -69 4 7 -2 18 -15 27 -19 14 -21 21 -15 72 5 48 3 64 -19 111 -41 87
-30 182 24 222 34 25 31 38 -11 38 -35 0 -49 -26 -50 -98 0 -55 -2 -51 -48 93
-17 55 -35 127 -39 160 -5 37 -11 55 -15 47z"/>
<path d="M2767 3300 c-28 -33 -81 -139 -74 -147 3 -2 19 22 37 54 18 32 42 73
52 91 24 40 18 41 -15 2z"/>
<path d="M3012 3251 c-18 -26 -53 -67 -78 -90 -50 -49 -56 -65 -16 -50 15 6
53 8 89 5 57 -6 88 3 63 19 -5 3 -10 42 -10 86 0 43 -3 79 -7 79 -5 0 -23 -22
-41 -49z"/>
<path d="M2600 3129 c-64 -58 -90 -75 -90 -58 0 6 -7 9 -15 5 -8 -3 -15 -1
-15 4 0 6 -6 10 -14 10 -8 0 -22 8 -32 17 -16 16 -18 16 -35 -6 -11 -13 -19
-39 -19 -60 0 -37 45 -209 59 -223 4 -4 45 0 91 10 l84 17 18 55 c12 39 16 73
12 115 -3 33 -1 82 6 109 6 27 9 50 8 51 -2 2 -28 -19 -58 -46z"/>
<path d="M3570 2827 c0 -27 23 -57 43 -57 7 0 23 7 35 16 27 19 30 54 3 54
-10 0 -33 3 -50 6 -28 6 -31 4 -31 -19z"/>
<path d="M2503 2808 c-43 -9 -48 -14 -37 -41 5 -14 12 -13 57 3 78 27 87 31
87 41 0 11 -51 10 -107 -3z"/>
<path d="M2545 2764 c-46 -17 -75 -41 -35 -29 31 9 99 44 85 44 -5 0 -28 -7
-50 -15z"/>
<path d="M3580 2750 c0 -12 40 -33 48 -25 4 4 -2 13 -12 21 -23 16 -36 18 -36
4z"/>
<path d="M2562 2738 c-7 -7 -12 -25 -12 -40 0 -28 0 -28 30 -13 21 11 30 23
30 40 0 27 -27 34 -48 13z"/>
<path d="M2245 2705 c47 -41 60 -43 94 -12 l26 22 -22 -26 c-13 -14 -23 -28
-23 -32 0 -14 33 -7 66 14 41 25 46 54 9 47 -13 -3 -26 -2 -27 2 -2 4 -39 10
-83 13 l-80 6 40 -34z"/>
<path d="M3677 2733 c-16 -15 -4 -34 32 -53 22 -11 43 -25 47 -31 4 -6 -13 0
-38 15 -25 14 -47 26 -50 26 -13 0 -17 -33 -7 -52 8 -15 8 -19 0 -14 -6 4 -11
0 -11 -9 0 -13 10 -15 56 -11 30 3 62 11 71 18 9 7 18 12 20 11 1 -2 8 -3 15
-3 15 0 -27 45 -76 81 -41 30 -48 33 -59 22z"/>
<path d="M2500 2701 c0 -28 11 -52 21 -45 16 9 11 64 -6 64 -8 0 -15 -9 -15
-19z"/>
<path d="M3577 2693 c-4 -19 -1 -32 11 -41 21 -16 34 -2 30 34 -4 39 -34 44
-41 7z"/>
<path d="M2383 2656 l-28 -25 33 -11 c17 -7 32 -16 32 -20 0 -4 11 -11 24 -14
13 -3 31 -9 40 -12 30 -11 16 17 -14 30 -17 7 -28 15 -25 18 7 7 -16 58 -26
58 -4 0 -21 -11 -36 -24z"/>
<path d="M2582 2664 c-26 -18 -31 -74 -7 -74 25 0 75 29 75 43 -1 16 -25 47
-36 47 -5 0 -20 -7 -32 -16z"/>
<path d="M2520 2600 c0 -16 5 -30 10 -30 6 0 10 14 10 30 0 17 -4 30 -10 30
-5 0 -10 -13 -10 -30z"/>
</g>
</svg>
